<svg width="40" height="40" viewBox="0 0 40 40" fill="none" xmlns="http://www.w3.org/2000/svg">
<path d="M0.513428 3.3318C0.513428 1.77628 1.81569 0.513672 3.421 0.513672H36.9472C38.5531 0.513672 39.8547 1.77628 39.8547 3.3318V37.0373C39.8547 38.5933 38.5531 39.855 36.9472 39.855H3.421C1.81584 39.855 0.513428 38.5934 0.513428 37.0378V3.33134V3.3318Z" fill="#006699"/>
<path d="M12.4685 33.4371V15.7255H6.58144V33.4371H12.4691H12.4685ZM9.5262 13.3077C11.5787 13.3077 12.8565 11.9476 12.8565 10.248C12.8181 8.50958 11.5787 7.1875 9.56523 7.1875C7.55037 7.1875 6.23444 8.50958 6.23444 10.2478C6.23444 11.9475 7.5118 13.3075 9.48762 13.3075H9.52573L9.5262 13.3077ZM15.7271 33.4371H21.6137V23.5472C21.6137 23.0185 21.6521 22.4885 21.8076 22.1109C22.233 21.0528 23.2016 19.9576 24.8283 19.9576C26.9579 19.9576 27.8104 21.5817 27.8104 23.9629V33.4371H33.6968V23.2818C33.6968 17.8418 30.7929 15.3102 26.9198 15.3102C23.7444 15.3102 22.3498 17.0851 21.5749 18.2939H21.6141V15.7261H15.7274C15.8042 17.3877 15.7269 33.4377 15.7269 33.4377L15.7271 33.4371Z" fill="white"/>
</svg>
